<svg xmlns="http://www.w3.org/2000/svg" xmlns:xlink="http://www.w3.org/1999/xlink" viewBox="0 0 820.16 780.81">
  <defs>
    <linearGradient id="a" x1="539.63" y1="734.6" x2="539.63" y2="151.19" gradientTransform="translate(-3.62 1.57)" gradientUnits="userSpaceOnUse">
      <stop offset="0" stop-color="gray" stop-opacity=".25"/>
      <stop offset=".54" stop-color="gray" stop-opacity=".12"/>
      <stop offset="1" stop-color="gray" stop-opacity=".1"/>
    </linearGradient>
    <linearGradient id="b" x1="540.17" y1="180.2" x2="540.17" y2="130.75" gradientTransform="translate(-63.92 7.85)" xlink:href="#a"/>
    <linearGradient id="c" x1="540.17" y1="140.86" x2="540.17" y2="82.43" gradientTransform="translate(-84.51 124.6) rotate(-12.11)" xlink:href="#a"/>
    <linearGradient id="d" x1="476.4" y1="710.53" x2="476.4" y2="127.12" gradientTransform="matrix(1, 0, 0, 1, 0, 0)" xlink:href="#a"/>
    <linearGradient id="e" x1="476.94" y1="156.13" x2="476.94" y2="106.68" gradientTransform="matrix(1, 0, 0, 1, 0, 0)" xlink:href="#a"/>
    <linearGradient id="f" x1="666.86" y1="176.39" x2="666.86" y2="117.95" gradientTransform="matrix(1, 0, 0, 1, 0, 0)" xlink:href="#a"/>
  </defs>
  <rect x="317.5" y="142.55" width="437.02" height="603.82" transform="translate(-271.22 62.72) rotate(-12.11)" fill="#e0e0e0"/>
  <rect x="324.89" y="152.76" width="422.25" height="583.41" transform="translate(-271.22 62.72) rotate(-12.11)" fill="url(#a)" opacity=".5"/>
  <rect x="329.81" y="157.1" width="411.5" height="570.52" transform="translate(-270.79 62.58) rotate(-12.11)" fill="#fafafa"/>
  <rect x="374.18" y="138.6" width="204.14" height="49.45" transform="translate(-213.58 43.93) rotate(-12.11)" fill="url(#b)"/>
  <path d="M460.93,91.9c-15.41,3.31-25.16,18.78-21.77,34.55s18.62,25.89,34,22.58,25.16-18.78,21.77-34.55S476.34,88.59,460.93,91.9ZM470.6,137A16.86,16.86,0,1,1,483.16,117,16.66,16.66,0,0,1,470.6,137Z" transform="translate(-189.92 -59.59)" fill="url(#c)"/>
  <rect x="375.66" y="136.55" width="199.84" height="47.27" transform="translate(-212.94 43.72) rotate(-12.11)" fill="#3d5afe"/>
  <path d="M460.93,91.9a27.93,27.93,0,1,0,33.17,21.45A27.93,27.93,0,0,0,460.93,91.9ZM470.17,135a16.12,16.12,0,1,1,12.38-19.14A16.12,16.12,0,0,1,470.17,135Z" transform="translate(-189.92 -59.59)" fill="#3d5afe"/>
  <rect x="257.89" y="116.91" width="437.02" height="603.82" fill="#e0e0e0"/>
  <rect x="265.28" y="127.12" width="422.25" height="583.41" fill="url(#d)" opacity=".5"/>
  <rect x="270.65" y="131.42" width="411.5" height="570.52" fill="#fff"/>
  <rect x="374.87" y="106.68" width="204.14" height="49.45" fill="url(#e)"/>
  <path d="M666.86,118c-15.76,0-28.54,13.08-28.54,29.22s12.78,29.22,28.54,29.22,28.54-13.08,28.54-29.22S682.62,118,666.86,118Zm0,46.08a16.86,16.86,0,1,1,16.46-16.86A16.66,16.66,0,0,1,666.86,164Z" transform="translate(-189.92 -59.59)" fill="url(#f)"/>
  <rect x="377.02" y="104.56" width="199.84" height="47.27" fill="#3d5afe"/>
  <path d="M666.86,118a27.93,27.93,0,1,0,27.93,27.93A27.93,27.93,0,0,0,666.86,118Zm0,44.05A16.12,16.12,0,1,1,683,145.89,16.12,16.12,0,0,1,666.86,162Z" transform="translate(-189.92 -59.59)" fill="#3d5afe"/>
  <g opacity=".5" fill="#47e6b1">
    <rect x="15.27" y="737.05" width="3.76" height="21.33"/>
    <rect x="205.19" y="796.65" width="3.76" height="21.33" transform="translate(824.47 540.65) rotate(90)"/>
  </g>
  <g opacity=".5" fill="#47e6b1">
    <rect x="451.49" width="3.76" height="21.33"/>
    <rect x="641.4" y="59.59" width="3.76" height="21.33" transform="translate(523.63 -632.62) rotate(90)"/>
  </g>
  <path d="M961,832.15a4.61,4.61,0,0,1-2.57-5.57,2.22,2.22,0,0,0,.1-.51h0a2.31,2.31,0,0,0-4.15-1.53h0a2.22,2.22,0,0,0-.26.45,4.61,4.61,0,0,1-5.57,2.57,2.22,2.22,0,0,0-.51-.1h0a2.31,2.31,0,0,0-1.53,4.15h0a2.22,2.22,0,0,0,.45.26,4.61,4.61,0,0,1,2.57,5.57,2.22,2.22,0,0,0-.1.51h0a2.31,2.31,0,0,0,4.15,1.53h0a2.22,2.22,0,0,0,.26-.45,4.61,4.61,0,0,1,5.57-2.57,2.22,2.22,0,0,0,.51.1h0a2.31,2.31,0,0,0,1.53-4.15h0A2.22,2.22,0,0,0,961,832.15Z" transform="translate(-189.92 -59.59)" fill="#4d8af0" opacity=".5"/>
  <path d="M326.59 627.09a4.61 4.61 0 01-2.57-5.57 2.22 2.22 0 00.1-.51h0a2.31 2.31 0 00-4.15-1.53h0a2.22 2.22 0 00-.26.45 4.61 4.61 0 01-5.57 2.57 2.22 2.22 0 00-.51-.1h0a2.31 2.31 0 00-1.53 4.15h0a2.22 2.22 0 00.45.26 4.61 4.61 0 012.57 5.57 2.22 2.22 0 00-.1.51h0a2.31 2.31 0 004.15 1.53h0a2.22 2.22 0 00.26-.45A4.61 4.61 0 01325 631.4a2.22 2.22 0 00.51.1h0a2.31 2.31 0 001.53-4.15h0A2.22 2.22 0 00326.59 627.09zM855 127.77a4.61 4.61 0 01-2.57-5.57 2.22 2.22 0 00.1-.51h0a2.31 2.31 0 00-4.15-1.53h0a2.22 2.22 0 00-.26.45 4.61 4.61 0 01-5.57 2.57 2.22 2.22 0 00-.51-.1h0a2.31 2.31 0 00-1.53 4.15h0a2.22 2.22 0 00.45.26 4.61 4.61 0 012.57 5.57 2.22 2.22 0 00-.1.51h0a2.31 2.31 0 004.15 1.53h0a2.22 2.22 0 00.26-.45 4.61 4.61 0 015.57-2.57 2.22 2.22 0 00.51.1h0a2.31 2.31 0 001.53-4.15h0A2.22 2.22 0 00855 127.77z" transform="translate(-189.92 -59.59)" fill="#fdd835" opacity=".5"/>
  <circle cx="812.64" cy="314.47" r="7.53" fill="#f55f44" opacity=".5"/>
  <circle cx="230.73" cy="746.65" r="7.53" fill="#f55f44" opacity=".5"/>
  <circle cx="735.31" cy="477.23" r="7.53" fill="#f55f44" opacity=".5"/>
  <circle cx="87.14" cy="96.35" r="7.53" fill="#4d8af0" opacity=".5"/>
  <circle cx="7.53" cy="301.76" r="7.53" fill="#47e6b1" opacity=".5"/>
</svg>
